<svg width="79.105" xmlns="http://www.w3.org/2000/svg" height="815.099" id="screenshot-a14d6b1e-95dd-8097-8007-25cce2019588" viewBox="0 0 79.105 815.099" xmlns:xlink="http://www.w3.org/1999/xlink" fill="none" version="1.1"><g id="shape-a14d6b1e-95dd-8097-8007-25cce2019588"><g class="frame-container-wrapper"><g class="frame-container-blur"><g class="frame-container-shadows"><g fill="none"><g class="fills" id="fills-a14d6b1e-95dd-8097-8007-25cce2019588"><rect rx="0" ry="0" x="0" y="0" width="79.10462188720703" height="815.0994873046875" transform="matrix(1.000000, 0.000000, 0.000000, 1.000000, 0.000000, 0.000000)" class="frame-background"/></g><g class="frame-children"><g id="shape-a14d6b1e-95dd-8097-8007-25cc06c279cb" rx="0" ry="0"><g id="shape-a14d6b1e-95dd-8097-8007-25cbaa8bbce0"><g class="frame-container-wrapper"><g class="frame-container-blur"><g class="frame-container-shadows"><g fill="none"><g class="fills" id="fills-a14d6b1e-95dd-8097-8007-25cbaa8bbce0"><rect rx="0" ry="0" x="0" y="408" width="79.10462188720703" height="407.0994873046875" transform="matrix(-1.000000, 0.000000, 0.000000, -1.000000, 79.104622, 1223.099487)" class="frame-background"/></g><g class="frame-children"><g id="shape-a14d6b1e-95dd-8097-8007-25cbaa8bbce1" rx="0" ry="0"><g id="shape-a14d6b1e-95dd-8097-8007-25cbaa8bbce2"><g class="fills" id="fills-a14d6b1e-95dd-8097-8007-25cbaa8bbce2"><path d="M39.55224609375,815.0994873046875L39.55224609375,566.0511474609375L39.55224609375,408L0,447.55230712890625L39.55224609375,815.0994873046875" style="fill: rgb(177, 178, 181); fill-opacity: 1;"/></g></g><g id="shape-a14d6b1e-95dd-8097-8007-25cbaa8bbce3"><g class="fills" id="fills-a14d6b1e-95dd-8097-8007-25cbaa8bbce3"><path d="M39.55224609375,815.0994873046875L39.55224609375,408L79.1046142578125,447.55230712890625L39.55224609375,815.0994873046875" style="fill: rgb(177, 178, 181); fill-opacity: 1;"/></g></g></g></g></g></g></g></g></g><g id="shape-a14d6b1e-95dd-8097-8007-25cba2744f62"><g class="frame-container-wrapper"><g class="frame-container-blur"><g class="frame-container-shadows"><g fill="none"><g class="fills" id="fills-a14d6b1e-95dd-8097-8007-25cba2744f62"><rect rx="0" ry="0" x="0" y="0" width="79.10462188720703" height="407.0994873046875" transform="matrix(1.000000, 0.000000, 0.000000, 1.000000, 0.000000, 0.000000)" class="frame-background"/></g><g class="frame-children"><g id="shape-a14d6b1e-95dd-8097-8007-25cba83b27e2" rx="0" ry="0"><g id="shape-a14d6b1e-95dd-8097-8007-25cba83b27e3"><g class="fills" id="fills-a14d6b1e-95dd-8097-8007-25cba83b27e3"><path d="M39.55224609375,0L39.55224609375,249.04837036132812L39.55224609375,407.0994873046875L79.1046142578125,367.54718017578125L39.55224609375,0" style="fill: rgb(231, 24, 67); fill-opacity: 1;"/></g></g><g id="shape-a14d6b1e-95dd-8097-8007-25cba83b27e4"><g class="fills" id="fills-a14d6b1e-95dd-8097-8007-25cba83b27e4"><path d="M39.55224609375,0L39.55224609375,407.0994873046875L0,367.54718017578125L39.55224609375,0" style="fill: rgb(231, 24, 67); fill-opacity: 1;"/></g></g></g></g></g></g></g></g></g><g id="shape-a14d6b1e-95dd-8097-8007-25cbf281b598" rx="0" ry="0"><g id="shape-a14d6b1e-95dd-8097-8007-25cbd155aa6f"><g class="fills" id="fills-a14d6b1e-95dd-8097-8007-25cbd155aa6f"><ellipse cx="39.49999999999994" cy="407.5" rx="33.49999999999994" ry="33.5" transform="matrix(1.000000, 0.000000, 0.000000, 1.000000, 0.000000, 0.000000)" style="fill: rgb(124, 125, 127); fill-opacity: 1;"/></g></g><g id="shape-a14d6b1e-95dd-8097-8007-25cbd9651df9"><g class="fills" id="fills-a14d6b1e-95dd-8097-8007-25cbd9651df9"><ellipse cx="39.5" cy="407.5" rx="18" ry="18" transform="matrix(1.000000, 0.000000, 0.000000, 1.000000, 0.000000, 0.000000)" style="fill: rgb(218, 218, 218); fill-opacity: 1;"/></g></g></g></g></g></g></g></g></g></g></svg>