<svg width="96" xmlns="http://www.w3.org/2000/svg" height="96" id="screenshot-4c53b0a6-9b6d-80df-8007-25d7fd392714" viewBox="0 0 96 96" xmlns:xlink="http://www.w3.org/1999/xlink" fill="none" version="1.1"><g id="shape-4c53b0a6-9b6d-80df-8007-25d7fd392714"><defs><clipPath id="frame-clip-4c53b0a6-9b6d-80df-8007-25d7fd392714-render-1" class="frame-clip frame-clip-def"><rect rx="0" ry="0" x="0" y="0" width="96" height="96" transform="matrix(1.000000, 0.000000, 0.000000, 1.000000, 0.000000, 0.000000)"/></clipPath></defs><g class="frame-container-wrapper"><g class="frame-container-blur"><g class="frame-container-shadows"><g clip-path="url(#frame-clip-4c53b0a6-9b6d-80df-8007-25d7fd392714-render-1)" fill="none"><g class="fills" id="fills-4c53b0a6-9b6d-80df-8007-25d7fd392714"><rect rx="0" ry="0" x="0" y="0" width="96" height="96" transform="matrix(1.000000, 0.000000, 0.000000, 1.000000, 0.000000, 0.000000)" class="frame-background"/></g><g class="frame-children"><g id="shape-4c53b0a6-9b6d-80df-8007-25d80ea38200"><g class="frame-container-wrapper"><g class="frame-container-blur"><g class="frame-container-shadows"><g fill="none"><g class="fills" id="fills-4c53b0a6-9b6d-80df-8007-25d80ea38200"><rect rx="0" ry="0" x="44.39999999999998" y="12" width="7.2000000000000455" height="72" transform="matrix(1.000000, 0.000000, 0.000000, 1.000000, 0.000000, 0.000000)" class="frame-background"/></g><g class="frame-children"><g id="shape-4c53b0a6-9b6d-80df-8007-25d80ea3c904" rx="0" ry="0"><g id="shape-4c53b0a6-9b6d-80df-8007-25d80ea3c905"><g class="frame-container-wrapper"><g class="frame-container-blur"><g class="frame-container-shadows"><g fill="none"><g class="fills" id="fills-4c53b0a6-9b6d-80df-8007-25d80ea3c905"><rect rx="0" ry="0" x="44.39999999999998" y="47.62105263157895" width="7.2000000000000455" height="36.37894736842105" transform="matrix(-1.000000, 0.000000, 0.000000, -1.000000, 96.000000, 131.621053)" class="frame-background"/></g><g class="frame-children"><g id="shape-4c53b0a6-9b6d-80df-8007-25d80ea3c906" rx="0" ry="0"><g id="shape-4c53b0a6-9b6d-80df-8007-25d80ea3c907"><g class="fills" id="fills-4c53b0a6-9b6d-80df-8007-25d80ea3c907"><path d="M48,84L48,61.74470520019531L48,47.62104797363281L44.4000244140625,51.15550231933594L48,84" style="fill: rgb(177, 178, 181); fill-opacity: 1;"/></g></g><g id="shape-4c53b0a6-9b6d-80df-8007-25d80ea3c908"><g class="fills" id="fills-4c53b0a6-9b6d-80df-8007-25d80ea3c908"><path d="M48,84L48,47.62104797363281L51.5999755859375,51.15550231933594L48,84" style="fill: rgb(177, 178, 181); fill-opacity: 1;"/></g></g></g></g></g></g></g></g></g><g id="shape-4c53b0a6-9b6d-80df-8007-25d80ea3c909"><g class="frame-container-wrapper"><g class="frame-container-blur"><g class="frame-container-shadows"><g fill="none"><g class="fills" id="fills-4c53b0a6-9b6d-80df-8007-25d80ea3c909"><rect rx="0" ry="0" x="44.39999999999998" y="12" width="7.2000000000000455" height="36.37894736842105" transform="matrix(1.000000, 0.000000, 0.000000, 1.000000, 0.000000, 0.000000)" class="frame-background"/></g><g class="frame-children"><g id="shape-4c53b0a6-9b6d-80df-8007-25d80ea3c90a" rx="0" ry="0"><g id="shape-4c53b0a6-9b6d-80df-8007-25d80ea3c90b"><g class="fills" id="fills-4c53b0a6-9b6d-80df-8007-25d80ea3c90b"><path d="M48,12L48,34.25529479980469L48,48.37895202636719L51.5999755859375,44.84449768066406L48,12" style="fill: rgb(231, 24, 67); fill-opacity: 1;"/></g></g><g id="shape-4c53b0a6-9b6d-80df-8007-25d80ea3c90c"><g class="fills" id="fills-4c53b0a6-9b6d-80df-8007-25d80ea3c90c"><path d="M48,12L48,48.37895202636719L44.4000244140625,44.84449768066406L48,12" style="fill: rgb(231, 24, 67); fill-opacity: 1;"/></g></g></g></g></g></g></g></g></g><g id="shape-4c53b0a6-9b6d-80df-8007-25d80ea3c90d" rx="0" ry="0"><g id="shape-4c53b0a6-9b6d-80df-8007-25d80ea3c90e"><g class="fills" id="fills-4c53b0a6-9b6d-80df-8007-25d80ea3c90e"><ellipse cx="48" cy="48" rx="2.315854180408337" ry="2.273684210526312" transform="matrix(1.000000, 0.000000, 0.000000, 1.000000, 0.000000, 0.000000)" style="fill: rgb(124, 125, 127); fill-opacity: 1;"/></g></g><g id="shape-4c53b0a6-9b6d-80df-8007-25d80ea3c90f"><g class="fills" id="fills-4c53b0a6-9b6d-80df-8007-25d80ea3c90f"><ellipse cx="47.99999999999994" cy="48" rx="1.2443395596223468" ry="1.221681068342491" transform="matrix(1.000000, 0.000000, 0.000000, 1.000000, 0.000000, 0.000000)" style="fill: rgb(218, 218, 218); fill-opacity: 1;"/></g></g></g></g></g></g></g></g></g></g></g></g></g></g></g></g></svg>