<svg width="92" xmlns="http://www.w3.org/2000/svg" height="92" id="screenshot-e944ce75-d69b-809f-8007-390d3bc68a34" viewBox="0 0 92 92" xmlns:xlink="http://www.w3.org/1999/xlink" fill="none" version="1.1"><g id="shape-e944ce75-d69b-809f-8007-390d3bc68a34" rx="0" ry="0"><g id="shape-e944ce75-d69b-809f-8007-390d1c1f9f04"><defs><clipPath id="frame-clip-e944ce75-d69b-809f-8007-390d1c1f9f04-render-2" class="frame-clip frame-clip-def"><rect rx="0" ry="0" x="0" y="0" width="92" height="92" transform="matrix(1.000000, 0.000000, 0.000000, 1.000000, 0.000000, 0.000000)"/></clipPath></defs><g class="frame-container-wrapper"><g class="frame-container-blur"><g class="frame-container-shadows"><g clip-path="url(#frame-clip-e944ce75-d69b-809f-8007-390d1c1f9f04-render-2)" fill="none"><g class="fills" id="fills-e944ce75-d69b-809f-8007-390d1c1f9f04"><rect width="92" height="92" class="frame-background" x="0" transform="matrix(1.000000, 0.000000, 0.000000, 1.000000, 0.000000, 0.000000)" style="fill: rgb(19, 15, 28); fill-opacity: 1;" ry="0" rx="0" y="0"/></g><g class="frame-children"/></g></g></g></g></g><g id="shape-e944ce75-d69b-809f-8007-390d2794729f"><defs><clipPath id="frame-clip-e944ce75-d69b-809f-8007-390d2794729f-render-3" class="frame-clip frame-clip-def"><rect rx="0" ry="0" x="0" y="0" width="92" height="92" transform="matrix(1.000000, 0.000000, 0.000000, 1.000000, 0.000000, 0.000000)"/></clipPath></defs><g class="frame-container-wrapper"><g class="frame-container-blur"><g class="frame-container-shadows"><g clip-path="url(#frame-clip-e944ce75-d69b-809f-8007-390d2794729f-render-3)" fill="none"><g class="fills" id="fills-e944ce75-d69b-809f-8007-390d2794729f"><rect rx="0" ry="0" x="0" y="0" width="92" height="92" transform="matrix(1.000000, 0.000000, 0.000000, 1.000000, 0.000000, 0.000000)" class="frame-background"/></g><g class="frame-children"><g id="shape-e944ce75-d69b-809f-8007-390d27949b57" rx="0" ry="0"><g id="shape-e944ce75-d69b-809f-8007-390d27949b58"><g class="fills" id="fills-e944ce75-d69b-809f-8007-390d27949b58"><ellipse cx="46" cy="46" rx="27.5" ry="27.5" transform="matrix(1.000000, 0.000000, 0.000000, 1.000000, 0.000000, 0.000000)"/></g><g id="strokes-ad1ec8ea-dcb8-8056-8007-391c0f702d77-e944ce75-d69b-809f-8007-390d27949b58" class="strokes"><g class="inner-stroke-shape" transform="matrix(1.000000, 0.000000, 0.000000, 1.000000, 0.000000, 0.000000)"><defs><clipPath id="inner-stroke-render-5-e944ce75-d69b-809f-8007-390d27949b58-0"><use href="#stroke-shape-render-5-e944ce75-d69b-809f-8007-390d27949b58-0"/></clipPath><ellipse cx="46" cy="46" rx="27.5" ry="27.5" id="stroke-shape-render-5-e944ce75-d69b-809f-8007-390d27949b58-0" style="fill: none; stroke-width: 4; stroke: rgb(255, 255, 255); stroke-opacity: 1;"/></defs><use href="#stroke-shape-render-5-e944ce75-d69b-809f-8007-390d27949b58-0" clip-path="url('#inner-stroke-render-5-e944ce75-d69b-809f-8007-390d27949b58-0')"/></g></g></g><g id="shape-e944ce75-d69b-809f-8007-390d27949b59"><g class="frame-container-wrapper"><g class="frame-container-blur"><g class="frame-container-shadows"><g fill="none"><g class="fills" id="fills-e944ce75-d69b-809f-8007-390d27949b59"><rect width="11" height="109.00000000000023" class="frame-background" x="40.54176331650547" transform="matrix(0.707107, 0.707107, -0.707107, 0.707107, 46.169706, -19.018127)" style="fill: rgb(19, 15, 28); fill-opacity: 1;" ry="0" rx="0" y="-8.277297962791636"/></g><g class="frame-children"><g id="shape-e944ce75-d69b-809f-8007-390d27949b5a" rx="0" ry="0"><g id="shape-e944ce75-d69b-809f-8007-390d27949b5b"><g class="frame-container-wrapper"><g class="frame-container-blur"><g class="frame-container-shadows"><g fill="none"><g class="fills" id="fills-e944ce75-d69b-809f-8007-390d27949b5b"><rect rx="0" ry="0" x="21.475931526933437" y="37.75169172151726" width="11.000000000000114" height="55.07368421052644" transform="matrix(-0.707107, -0.707107, 0.707107, -0.707107, -0.115169, 130.529363)" class="frame-background"/></g><g class="frame-children"><g id="shape-e944ce75-d69b-809f-8007-390d27949b5c" rx="0" ry="0"><g id="shape-e944ce75-d69b-809f-8007-390d27949b5d"><g class="fills" id="fills-e944ce75-d69b-809f-8007-390d27949b5d"><path d="M7.50439453125,84.76004028320312L31.328369140625,60.9361572265625L46.4473876953125,45.817047119140625L38.7747802734375,45.711517333984375L7.50439453125,84.76004028320312" style="fill: rgb(177, 178, 181); fill-opacity: 1;"/></g></g><g id="shape-e944ce75-d69b-809f-8007-390d27949b5e"><g class="fills" id="fills-e944ce75-d69b-809f-8007-390d27949b5e"><path d="M7.50439453125,84.76004028320312L46.4473876953125,45.817047119140625L46.55291748046875,53.489715576171875L7.50439453125,84.76004028320312" style="fill: rgb(177, 178, 181); fill-opacity: 1;"/></g></g></g></g></g></g></g></g></g><g id="shape-e944ce75-d69b-809f-8007-390d27949b5f"><g class="frame-container-wrapper"><g class="frame-container-blur"><g class="frame-container-shadows"><g fill="none"><g class="fills" id="fills-e944ce75-d69b-809f-8007-390d27949b5f"><rect rx="0" ry="0" x="59.6075951060775" y="-0.37997185762674235" width="11" height="55.073684210526494" transform="matrix(0.707107, 0.707107, -0.707107, 0.707107, 38.272380, -38.083959)" class="frame-background"/></g><g class="frame-children"><g id="shape-e944ce75-d69b-809f-8007-390d27949b60" rx="0" ry="0"><g id="shape-e944ce75-d69b-809f-8007-390d27949b61"><g class="fills" id="fills-e944ce75-d69b-809f-8007-390d27949b61"><path d="M84.5791015625,7.68536376953125L60.75518798828125,31.509246826171875L45.6361083984375,46.62835693359375L53.30877685546875,46.73388671875L84.5791015625,7.68536376953125" style="fill: rgb(231, 24, 67); fill-opacity: 1;"/></g></g><g id="shape-e944ce75-d69b-809f-8007-390d27949b62"><g class="fills" id="fills-e944ce75-d69b-809f-8007-390d27949b62"><path d="M84.5791015625,7.68536376953125L45.6361083984375,46.62835693359375L45.53057861328125,38.9556884765625L84.5791015625,7.68536376953125" style="fill: rgb(231, 24, 67); fill-opacity: 1;"/></g></g></g></g></g></g></g></g></g><g id="shape-e944ce75-d69b-809f-8007-390d27949b63" rx="0" ry="0"><g id="shape-e944ce75-d69b-809f-8007-390d27949b64"><g class="fills" id="fills-e944ce75-d69b-809f-8007-390d27949b64"><ellipse cx="46.04176331650547" cy="46.222702037208535" rx="3.5381105534016797" ry="3.4421052631578846" transform="matrix(0.707107, 0.707107, -0.707107, 0.707107, 46.169706, -19.018127)" style="fill: rgb(124, 125, 127); fill-opacity: 1;"/></g></g><g id="shape-e944ce75-d69b-809f-8007-390d27949b65"><g class="fills" id="fills-e944ce75-d69b-809f-8007-390d27949b65"><ellipse cx="46.04176331650541" cy="46.22270203720842" rx="1.9010743272007744" ry="1.8494893951295808" transform="matrix(0.707107, 0.707107, -0.707107, 0.707107, 46.169706, -19.018127)" style="fill: rgb(218, 218, 218); fill-opacity: 1;"/></g></g></g></g></g></g></g></g></g></g></g></g></g></g></g></g></g></g></svg>